HIERARCHY
ROOT Hips
{
	OFFSET 0.00000 0.00000 0.00000
	CHANNELS 6 Xposition Yposition Zposition Yrotation Zrotation Xrotation 
	JOINT Lumbar
	{
		OFFSET 0 0 0
		CHANNELS 3 Zrotation Xrotation Yrotation
		JOINT Neck
		{
			OFFSET 0.00 0.2701 0.00
			CHANNELS 3 Zrotation Xrotation Yrotation
			End Site
			{
				OFFSET 0.00 0.1379 0.00
			}
		}
		JOINT RightShoulder
		{
			OFFSET 0.0119 0.2289 0.1181
			CHANNELS 3 Zrotation Xrotation Yrotation
			JOINT RightElbow
			{
				OFFSET 0.00 -0.1475 0.00
				CHANNELS 2 Zrotation Yrotation
				JOINT RightWrist
				{
					OFFSET 0.00 -0.1605 0.00
					CHANNELS 2 Zrotation Xrotation
					End Site
					{
						OFFSET 0.0040 -0.1068 0.0006
					}
				}
			}
		}
		JOINT LeftShoulder
		{
			OFFSET 0.0119 0.2289 -0.1181
			CHANNELS 3 Zrotation Xrotation Yrotation
			JOINT LeftElbow
			{
				OFFSET 0.00 -0.1475 0.00
				CHANNELS 2 Zrotation Yrotation
				JOINT LeftWrist
				{
					OFFSET 0.00 -0.1605 0.00
					CHANNELS 2 Zrotation Xrotation
					End Site
					{
						OFFSET 0.0040 -0.1068 -0.0006
					}
				}
			}
		}
	}
	JOINT RightHip
	{
		OFFSET 0.0316 -0.0424 0.0458
		CHANNELS 3 Zrotation Xrotation Yrotation
		JOINT RightKnee
		{
			OFFSET 0.00 -0.2438 0.00
			CHANNELS 1 Zrotation
			JOINT RightAnkle
			{
				OFFSET 0.00 -0.2449 0.00
				CHANNELS 3 Zrotation Xrotation Yrotation
				End Site
				{
					OFFSET 0.1237 -0.0542 0.0051
				}
			}
		}
	}
	JOINT LeftHip
	{
		OFFSET 0.0316 -0.0424 -0.0458
		CHANNELS 3 Zrotation Xrotation Yrotation
		JOINT LeftKnee
		{
			OFFSET 0.00 -0.2438 0.00
			CHANNELS 1 Zrotation
			JOINT LeftAnkle
			{
				OFFSET 0.00 -0.2449 0.00
				CHANNELS 3 Zrotation Xrotation Yrotation
				End Site
				{
					OFFSET 0.1237 -0.0542 -0.0051
				}
			}
		}
	}
}
MOTION
Frames: 22
Frame Time: 0.02
-0.00047 -3e-05 0.00014 20.77244 -35.36887 -5.20808 56.4931 1.35955 -0.25345 -11.2866 -1.46077 -1.32747 19.43968 -106.02221 -87.14854 5.78667 69.83135 -20.19035 -0.50944 11.32307 111.24245 -55.63572 5.7865 -100.25742 15.62817 -1.00036 48.94823 -3.09585 -9.11854 -18.98187 -7.29444 -3.01337 -3.76462 53.06491 7.52256 1.55136 -23.97995 -8.38176 3.4213 4.02172
-0.00054 -6e-05 3e-05 20.76729 -35.37217 -5.20425 56.53419 1.35475 -0.19396 -11.27911 -1.43326 -1.32812 19.79037 -105.88325 -87.14803 5.78673 70.02493 -20.22019 -0.55108 11.68954 111.10639 -55.63526 5.78662 -100.4532 15.70699 -1.02434 48.94776 -3.15407 -9.38404 -18.98109 -7.28549 -2.99395 -3.75119 53.06174 7.6093 2.03311 -23.98335 -8.35824 3.39703 4.0026
-0.00061 -9e-05 -8e-05 20.76221 -35.3754 -5.20044 56.57515 1.34996 -0.13463 -11.27167 -1.40583 -1.32876 20.14026 -105.74464 -87.14752 5.78679 70.21795 -20.24992 -0.59264 12.055 110.97062 -55.63479 5.78675 -100.64849 15.78558 -1.04827 48.94725 -3.2121 -9.6486 -18.98032 -7.27658 -2.97461 -3.7378 53.05853 7.69578 2.51348 -23.98675 -8.33476 3.37278 3.98353
-0.00068 -0.00012 -0.0002 20.7571 -35.37868 -5.19662 56.61611 1.34518 -0.07532 -11.26421 -1.37841 -1.32941 20.48993 -105.6061 -87.14702 5.78685 70.41093 -20.27967 -0.63416 12.42038 110.83496 -55.63433 5.78687 -100.84369 15.86417 -1.07218 48.94678 -3.27014 -9.91326 -18.97955 -7.26766 -2.95526 -3.72441 53.05536 7.78226 2.99375 -23.99014 -8.3113 3.34858 3.96447
-0.00075 -0.00015 -0.00031 20.7519 -35.38204 -5.19279 56.65719 1.3404 -0.01585 -11.25671 -1.35092 -1.33005 20.84028 -105.46722 -87.1465 5.78691 70.60446 -20.30951 -0.67573 12.78669 110.69905 -55.63386 5.78699 -101.0393 15.94297 -1.09612 48.94638 -3.32835 -10.1789 -18.97876 -7.25871 -2.93583 -3.71097 53.05223 7.869 3.47539 -23.99353 -8.28781 3.32435 3.94537
-0.00082 -0.00018 -0.00042 20.74708 -35.385 -5.18901 56.69788 1.33557 0.04315 -11.24941 -1.32363 -1.33069 21.18915 -105.32919 -87.146 5.78697 70.79641 -20.33904 -0.71729 13.15029 110.56358 -55.6334 5.78712 -101.23387 16.02113 -1.12003 48.94563 -3.38601 -10.44115 -18.97803 -7.24988 -2.91666 -3.6977 53.04884 7.95491 3.95308 -23.99695 -8.26436 3.30007 3.92635
-0.00089 -0.00022 -0.00053 20.74149 -35.38877 -5.18514 56.73932 1.33086 0.10303 -11.24168 -1.29596 -1.33134 21.54067 -105.18963 -87.14548 5.78703 70.9913 -20.36918 -0.75883 13.51906 110.42741 -55.63293 5.78724 -101.43039 16.10051 -1.14398 48.94559 -3.44472 -10.70996 -18.97718 -7.24081 -2.89699 -3.6841 53.046 8.04239 4.4381 -24.00031 -8.24085 3.27592 3.90719
-0.00096 -0.00025 -0.00065 20.73662 -35.39176 -5.18135 56.78004 1.32604 0.1621 -11.23441 -1.26865 -1.33199 21.88966 -105.05143 -87.14498 5.78709 71.1835 -20.3987 -0.80038 13.88287 110.29183 -55.63246 5.78737 -101.625 16.1787 -1.16788 48.94488 -3.50246 -10.97269 -18.97645 -7.23196 -2.87779 -3.67081 53.04263 8.12846 4.9165 -24.00373 -8.2174 3.25165 3.88816
-0.00103 -0.00028 -0.00076 20.7326 -35.39392 -5.17766 56.82004 1.32107 0.22022 -11.22747 -1.24175 -1.33262 22.23608 -104.91505 -87.14449 5.78715 71.37246 -20.4277 -0.84198 14.24152 110.15711 -55.63201 5.78749 -101.81785 16.25574 -1.19179 48.94339 -3.55903 -11.22819 -18.97583 -7.22338 -2.85911 -3.65789 53.0387 8.2127 5.38648 -24.0072 -8.19398 3.22724 3.8693
-0.0011 -0.00031 -0.00087 20.72362 -35.40124 -5.17341 56.86468 1.31694 0.28394 -11.21792 -1.21237 -1.3333 22.59887 -104.76865 -87.14389 5.78722 71.58019 -20.46042 -0.88343 14.6326 110.01783 -55.6315 5.78763 -102.02255 16.34033 -1.21586 48.94649 -3.62241 -11.52591 -18.97449 -7.21326 -2.83731 -3.64279 53.03824 8.30716 5.90393 -24.01032 -8.17027 3.20366 3.84947
-0.00117 -0.00034 -0.00098 20.72514 -35.39744 -5.17033 56.89919 1.31102 0.33575 -11.21431 -1.18829 -1.33389 22.92606 -104.64312 -87.14354 5.78726 71.74821 -20.48482 -0.92508 14.95349 109.88798 -55.63111 5.78773 -102.20109 16.4084 -1.23945 48.93986 -3.67134 -11.73412 -18.97472 -7.2064 -2.82216 -3.63232 53.03033 8.38021 6.32182 -24.0142 -8.14722 3.17833 3.83167
-0.00126 -0.00036 -0.0011 20.75539 -35.36489 -5.17054 56.90835 1.30029 0.3553 -11.22387 -1.1783 -1.33421 23.16507 -104.57683 -87.14386 5.78722 71.80748 -20.48888 -0.96912 15.09482 109.78503 -55.63105 5.78774 -102.31789 16.43467 -1.26342 48.90702 -3.68101 -11.69801 -18.97885 -7.20829 -2.82478 -3.63446 53.00301 8.39251 6.45846 -24.02005 -8.1258 3.14807 3.81968
-0.00137 -0.00038 -0.00121 20.79616 -35.3209 -5.17192 56.90683 1.28774 0.36281 -11.24009 -1.17369 -1.33447 23.36757 -104.53061 -87.14442 5.78716 71.82707 -20.48334 -1.01361 15.16361 109.69094 -55.63109 5.78772 -102.40739 16.4432 -1.28693 48.86446 -3.67612 -11.57194 -18.98466 -7.21348 -2.83414 -3.64127 52.96816 8.38359 6.49631 -24.02669 -8.1051 3.11611 3.80972
-0.00147 -0.0004 -0.00131 20.83218 -35.28093 -5.17273 56.9087 1.27598 0.37555 -11.25519 -1.16694 -1.33476 23.57934 -104.47455 -87.14486 5.78711 71.86438 -20.48157 -1.05597 15.25663 109.59263 -55.63112 5.78771 -102.50174 16.45819 -1.30916 48.82588 -3.67757 -11.48597 -18.98997 -7.21732 -2.84073 -3.64604 52.93591 8.38574 6.585 -24.03302 -8.08418 3.08497 3.79865
-0.00155 -0.00042 -0.00144 20.8682 -35.24569 -5.1737 56.91698 1.26445 0.38926 -11.26181 -1.15899 -1.33494 23.81795 -104.42369 -87.14536 5.78705 71.90197 -20.48553 -1.10407 15.38492 109.49686 -55.63108 5.78771 -102.62449 16.48199 -1.33633 48.78858 -3.68 -11.40244 -18.99408 -7.22057 -2.84617 -3.6505 52.90654 8.38209 6.64962 -24.03911 -8.06274 3.05347 3.78826
-0.00169 -0.00045 -0.00153 20.90657 -35.19816 -5.1746 56.90905 1.2519 0.39811 -11.28822 -1.1547 -1.33548 23.997 -104.36411 -87.1458 5.787 71.93076 -20.47119 -1.14329 15.4244 109.39577 -55.6311 5.7877 -102.68593 16.48062 -1.35477 48.74701 -3.67713 -11.29337 -19.00118 -7.22578 -2.85552 -3.65667 52.8701 8.38515 6.7394 -24.04592 -8.04265 3.0225 3.77705
-0.00195 -0.0005 -0.00153 20.95007 -35.11734 -5.17517 56.86148 1.23791 0.39654 -11.363 -1.16003 -1.33568 23.9899 -104.29713 -87.14601 5.78698 71.93582 -20.44007 -1.13216 15.22407 109.29397 -55.63124 5.78769 -102.54824 16.43573 -1.33551 48.6904 -3.66175 -11.12867 -19.01534 -7.23584 -2.87477 -3.66678 52.81021 8.41504 6.93683 -24.05419 -8.02516 2.99195 3.76223
-0.00228 -0.00057 -0.00149 20.99535 -35.02501 -5.1756 56.79721 1.22278 0.39052 -11.45839 -1.16866 -1.33649 23.9382 -104.21605 -87.14615 5.78696 71.93566 -20.38253 -1.11654 14.94157 109.18208 -55.63081 5.78774 -102.35688 16.36155 -1.31049 48.63109 -3.64182 -10.94278 -19.03266 -7.24769 -2.89757 -3.67836 52.74472 8.45186 7.16058 -24.06325 -8.00918 2.96227 3.74668
-0.00259 -0.00063 -0.00147 21.03903 -34.93933 -5.17601 56.73933 1.20758 0.38644 -11.54731 -1.17529 -1.33795 23.91638 -104.12798 -87.14632 5.78694 71.94322 -20.31966 -1.12028 14.70178 109.06601 -55.63144 5.78769 -102.2137 16.28731 -1.29647 48.57645 -3.62491 -10.77119 -19.04896 -7.25854 -2.91825 -3.68902 52.68532 8.48341 7.36293 -24.07214 -7.99315 2.93318 3.73206
-0.00284 -0.00069 -0.00147 21.08642 -34.84706 -5.1768 56.68738 1.19482 0.38213 -11.62398 -1.1844 -1.3356 23.81841 -104.09954 -87.14651 5.78692 71.92461 -20.33981 -1.05233 14.42701 108.99303 -55.63126 5.78773 -101.96806 16.27114 -1.24512 48.5061 -3.60341 -10.57648 -19.06329 -7.2703 -2.94133 -3.70095 52.60994 8.52304 7.60103 -24.08015 -7.97449 2.89992 3.71506
-0.00323 -0.00077 -0.00141 21.12636 -34.76617 -5.17677 56.61771 1.17671 0.37758 -11.73127 -1.18884 -1.34119 23.91197 -103.94032 -87.14665 5.7869 71.96253 -20.16816 -1.13086 14.2188 108.82055 -55.62943 5.78787 -101.9248 16.12449 -1.27256 48.46898 -3.59065 -10.42641 -19.08279 -7.28052 -2.96011 -3.7105 52.56755 8.54795 7.77303 -24.09031 -7.96164 2.8755 3.70274
-0.00395 -0.00091 -0.00121 21.14533 -34.71758 -5.17433 56.51602 1.14443 0.37206 -11.91586 -1.18119 -1.3698 24.18819 -103.45404 -87.14668 5.7869 72.14662 -19.58517 -1.62594 14.09254 108.43409 -55.63566 5.78723 -102.42578 15.64503 -1.4968 48.51582 -3.60252 -10.40168 -19.11309 -7.28641 -2.96661 -3.71336 52.6101 8.52873 7.74923 -24.10503 -7.96476 2.87607 3.70401
